<?xml version="1.0" encoding="iso-8859-1"?>
<!-- Uploaded to: SVG Repo, www.svgrepo.com, Generator: SVG Repo Mixer Tools -->
<!DOCTYPE svg PUBLIC "-//W3C//DTD SVG 1.1//EN" "http://www.w3.org/Graphics/SVG/1.1/DTD/svg11.dtd">
<svg fill="#000000" height="800px" width="800px" version="1.1" id="Capa_1" xmlns="http://www.w3.org/2000/svg" xmlns:xlink="http://www.w3.org/1999/xlink" 
	 viewBox="0 0 319 319" xml:space="preserve">
<path d="M252.998,123.69c-0.048-15.8-12.915-28.641-28.726-28.641H224v-8.143c0-27.547-22.41-49.957-49.957-49.957H107.5
	c-9.098,0-16.5,7.402-16.5,16.5s7.402,16.5,16.5,16.5h66.543c9.351,0,16.957,7.606,16.957,16.957v8.143H94.729
	c-15.812,0-28.679,12.841-28.726,28.641C28.828,128.464,0,160.286,0,198.737v7.625c0,41.734,33.953,75.688,75.688,75.688h167.625
	c41.734,0,75.688-33.953,75.688-75.688v-7.625C319,160.286,290.172,128.464,252.998,123.69z M174.043,56.95H107.5
	c-1.93,0-3.5-1.57-3.5-3.5s1.57-3.5,3.5-3.5h66.543C194.421,49.95,211,66.529,211,86.907v8.043h-7v-8.043
	C204,70.389,190.562,56.95,174.043,56.95z M94.729,108.05h129.543c8.427,0,15.307,6.666,15.692,15H79.037
	C79.421,114.716,86.302,108.05,94.729,108.05z M75.688,136.05h167.625c28.606,0,52.78,19.267,60.272,45.5H15.415
	C22.907,155.316,47.082,136.05,75.688,136.05z M306,198.737v7.625c0,1.408-0.063,2.802-0.156,4.188H13.156
	c-0.092-1.386-0.156-2.779-0.156-4.188v-7.625c0-1.408,0.063-2.802,0.156-4.188h292.689C305.937,195.936,306,197.329,306,198.737z
	 M243.313,269.05H75.688c-28.606,0-52.78-19.267-60.272-45.5h288.17C296.093,249.783,271.918,269.05,243.313,269.05z"/>
</svg>